<svg width="21" height="21" viewBox="0 0 21 21" fill="none" xmlns="http://www.w3.org/2000/svg">
<path d="M13.4442 19.366C13.2432 19.567 13.0046 19.7265 12.742 19.8353C12.4794 19.9441 12.198 20.0001 11.9137 20.0001C11.6294 20.0001 11.348 19.9441 11.0854 19.8353C10.8228 19.7265 10.5842 19.567 10.3832 19.366L1.8342 10.817C1.63306 10.6162 1.47353 10.3777 1.36473 10.1152C1.25594 9.85263 1.20002 9.57119 1.2002 9.287V3.164C1.2002 1.97 2.1702 1 3.3642 1H9.4872C10.0602 1 10.6112 1.228 11.0172 1.634L19.5662 10.183C19.7672 10.384 19.9267 10.6226 20.0355 10.8852C20.1443 11.1478 20.2003 11.4292 20.2003 11.7135C20.2003 11.9978 20.1443 12.2792 20.0355 12.5418C19.9267 12.8044 19.7672 13.043 19.5662 13.244L13.4442 19.366Z" stroke="#484C52" stroke-width="1.5" stroke-linecap="round" stroke-linejoin="round"/>
</svg>
