<svg width="18" height="18" viewBox="0 0 18 18" fill="none" xmlns="http://www.w3.org/2000/svg">
<path fill-rule="evenodd" clip-rule="evenodd" d="M16.8 0.499939H1.2C1.01435 0.499939 0.836301 0.573689 0.705025 0.704964C0.57375 0.83624 0.5 1.01429 0.5 1.19994V16.7999C0.5 17.1799 0.82 17.4999 1.2 17.4999H9.53V11.1199H7.41V8.46994H9.53V6.33994C9.53 4.13994 10.93 3.06994 12.88 3.06994C13.82 3.06994 14.63 3.13994 14.86 3.16994V5.46994H13.5C12.44 5.46994 12.19 5.96994 12.19 6.70994V8.46994H14.84L14.31 11.1199H12.2L12.24 17.4999H16.8C16.8928 17.5013 16.9849 17.4841 17.0709 17.4496C17.157 17.415 17.2354 17.3636 17.3015 17.2985C17.3675 17.2333 17.42 17.1557 17.4558 17.0701C17.4916 16.9846 17.51 16.8927 17.51 16.7999V1.19994C17.51 1.01429 17.4363 0.83624 17.305 0.704964C17.1737 0.573689 16.9957 0.499939 16.81 0.499939" fill="#3B5998"/>
</svg>
