<svg width="19" height="17" viewBox="0 0 19 17" fill="none" xmlns="http://www.w3.org/2000/svg">
<path fill-rule="evenodd" clip-rule="evenodd" d="M18.14 8.70033C18.14 8.09035 18.0871 7.51037 17.9812 6.96039H9.5V10.2403H14.3494C14.2493 10.7614 14.0382 11.258 13.7288 11.6997C13.4194 12.1415 13.0181 12.5193 12.5494 12.8102V14.9401H15.4506C16.3374 14.1365 17.0352 13.1656 17.4986 12.0906C17.962 11.0155 18.1805 9.8604 18.14 8.70033Z" fill="#4285F4"/>
<path fill-rule="evenodd" clip-rule="evenodd" d="M9.50006 17C11.6929 17.0586 13.8263 16.3215 15.4612 14.9401L12.5495 12.8101C11.6404 13.3584 10.5783 13.6371 9.50006 13.6101C8.37765 13.5989 7.28733 13.255 6.38301 12.627C5.47869 11.999 4.80606 11.1187 4.46006 10.1102H1.453V12.3102C2.20154 13.72 3.35066 14.9053 4.77181 15.7336C6.19296 16.5618 7.83009 17.0003 9.50006 17Z" fill="#34A853"/>
<path fill-rule="evenodd" clip-rule="evenodd" d="M4.46 10.1203C4.09023 9.07199 4.09023 7.93873 4.46 6.89041V4.69049H1.45294C0.825369 5.873 0.499047 7.17763 0.500002 8.50036C0.500002 9.87031 0.849414 11.1703 1.45294 12.3202L4.46 10.1203Z" fill="#FBBC05"/>
<path fill-rule="evenodd" clip-rule="evenodd" d="M9.50006 3.38051C10.7792 3.36059 12.0153 3.81676 12.9412 4.65047L15.5248 2.21055C13.8943 0.766455 11.7352 -0.0255197 9.50006 0.000627426C7.8312 -0.00062204 6.19484 0.436374 4.7738 1.26279C3.35276 2.08921 2.20301 3.2725 1.453 4.68046L4.46006 6.88039C4.80606 5.87193 5.47869 4.99157 6.38301 4.3636C7.28733 3.73562 8.37765 3.39174 9.50006 3.38051Z" fill="#EA4335"/>
</svg>
