<svg width="19" height="17" viewBox="0 0 19 17" fill="none" xmlns="http://www.w3.org/2000/svg">
<path d="M17.9 0.727829C17.1971 1.2095 16.4257 1.55894 15.6114 1.74783C15.278 1.34314 14.873 1.01776 14.4214 0.791624C13.9698 0.565491 13.481 0.443375 12.985 0.432763C12.4891 0.422152 11.9963 0.523268 11.5371 0.729913C11.0778 0.936558 10.6617 1.24438 10.3143 1.6345C9.62512 2.39358 9.23681 3.42248 9.23429 4.49618C9.23429 4.81729 9.26857 5.12896 9.30286 5.44062C7.84327 5.3502 6.41711 4.92357 5.11641 4.18827C3.81572 3.45298 2.6694 2.42535 1.75143 1.17172C1.43287 1.79017 1.25082 2.48253 1.22 3.19284C1.22765 3.86325 1.38108 4.52188 1.66743 5.11347C1.95378 5.70506 2.36469 6.21237 2.86571 6.59285C2.28976 6.56913 1.72777 6.39082 1.22857 6.0734V6.13952C1.22857 8.08508 2.48857 9.72842 4.17714 10.1156C3.86 10.1912 3.54286 10.2384 3.19143 10.2573L2.54 10.1912C2.77483 10.9921 3.22872 11.6934 3.83946 12.199C4.4502 12.7046 5.18789 12.9896 5.95143 13.0151C4.62784 14.1192 3.01716 14.7251 1.35714 14.7434L0.5 14.6868C2.19021 15.8732 4.15308 16.5024 6.15714 16.5001C12.9114 16.5001 16.6143 10.314 16.5886 4.99673C16.6057 4.77951 16.6057 4.60951 16.5886 4.41118C17.3207 3.84703 17.9465 3.13178 18.4314 2.30506C17.7714 2.6545 17.06 2.87173 16.3314 2.96617C17.0966 2.46416 17.6603 1.66077 17.9086 0.718385" fill="black"/>
</svg>
