<svg width="21" height="20" viewBox="0 0 21 20" fill="none" xmlns="http://www.w3.org/2000/svg">
<path d="M10.49 0C4.97 0 0.5 4.48 0.5 10C0.5 15.52 4.97 20 10.49 20C16.02 20 20.5 15.52 20.5 10C20.5 4.48 16.02 0 10.49 0ZM10.5 18C6.08 18 2.5 14.42 2.5 10C2.5 5.58 6.08 2 10.5 2C14.92 2 18.5 5.58 18.5 10C18.5 14.42 14.92 18 10.5 18ZM14 9C14.83 9 15.5 8.33 15.5 7.5C15.5 6.67 14.83 6 14 6C13.17 6 12.5 6.67 12.5 7.5C12.5 8.33 13.17 9 14 9ZM7 9C7.83 9 8.5 8.33 8.5 7.5C8.5 6.67 7.83 6 7 6C6.17 6 5.5 6.67 5.5 7.5C5.5 8.33 6.17 9 7 9ZM10.5 15.5C12.83 15.5 14.81 14.04 15.61 12H5.39C6.19 14.04 8.17 15.5 10.5 15.5Z" fill="#475367"/>
</svg>
