<svg width="162" height="48" viewBox="0 0 162 48" fill="none" xmlns="http://www.w3.org/2000/svg">
<path d="M6.53534 47.5H0V20.1134H6.60048V22.7701C6.80312 22.3568 7.1867 21.9067 7.75122 21.4196C8.33021 20.9178 9.06118 20.4897 9.94414 20.1355C10.8416 19.7665 11.8548 19.582 12.9838 19.582C14.7208 19.582 16.2045 20.0174 17.4348 20.8882C18.6796 21.7591 19.635 22.9251 20.3008 24.3863C20.9666 25.8327 21.2996 27.4416 21.2996 29.2127C21.2996 30.9839 20.9449 32.6001 20.2357 34.0613C19.5264 35.5077 18.5277 36.6664 17.2394 37.5372C15.9656 38.3933 14.4603 38.8213 12.7233 38.8213C11.4785 38.8213 10.4146 38.5999 9.53161 38.1571C8.66312 37.6996 7.97557 37.1977 7.46896 36.6516C6.97682 36.0907 6.66561 35.6553 6.53534 35.3454V47.5ZM14.8511 29.2127C14.8511 28.3862 14.6701 27.6482 14.3083 26.9988C13.9464 26.3346 13.4543 25.818 12.8318 25.449C12.2239 25.0652 11.5364 24.8734 10.7692 24.8734C9.97309 24.8734 9.25659 25.0652 8.6197 25.449C7.99729 25.818 7.50515 26.3346 7.14328 26.9988C6.78141 27.6482 6.60048 28.3862 6.60048 29.2127C6.60048 30.0393 6.78141 30.7846 7.14328 31.4488C7.50515 32.0982 7.99729 32.6075 8.6197 32.9764C9.25659 33.3454 9.97309 33.5299 10.7692 33.5299C11.5364 33.5299 12.2239 33.3454 12.8318 32.9764C13.4543 32.6075 13.9464 32.0982 14.3083 31.4488C14.6701 30.7846 14.8511 30.0393 14.8511 29.2127Z" fill="#F03836"/>
<path d="M35.8643 38.2899V35.3454C35.734 35.6406 35.4011 36.0686 34.8655 36.6295C34.3445 37.1903 33.6497 37.6996 32.7812 38.1571C31.9127 38.5999 30.8995 38.8213 29.7415 38.8213C28.0045 38.8213 26.4847 38.3933 25.182 37.5372C23.8792 36.6664 22.866 35.5077 22.1423 34.0613C21.4185 32.6001 21.0567 30.9839 21.0567 29.2127C21.0567 27.4416 21.4185 25.8327 22.1423 24.3863C22.866 22.9251 23.8792 21.7591 25.182 20.8882C26.4847 20.0174 28.0045 19.582 29.7415 19.582C30.856 19.582 31.8331 19.7665 32.6726 20.1355C33.5122 20.4897 34.1925 20.9178 34.7136 21.4196C35.2347 21.9067 35.5965 22.3568 35.7992 22.7701V20.1134H42.3562V38.2899H35.8643ZM27.5269 29.2127C27.5269 30.0393 27.715 30.7846 28.0914 31.4488C28.4677 32.0982 28.9671 32.6075 29.5895 32.9764C30.2264 33.3454 30.9284 33.5299 31.6956 33.5299C32.4917 33.5299 33.1937 33.3454 33.8017 32.9764C34.4096 32.6075 34.8873 32.0982 35.2347 31.4488C35.5965 30.7846 35.7775 30.0393 35.7775 29.2127C35.7775 28.3862 35.5965 27.6482 35.2347 26.9988C34.8873 26.3346 34.4096 25.818 33.8017 25.449C33.1937 25.0652 32.4917 24.8734 31.6956 24.8734C30.9284 24.8734 30.2264 25.0652 29.5895 25.449C28.9671 25.818 28.4677 26.3346 28.0914 26.9988C27.715 27.6482 27.5269 28.3862 27.5269 29.2127Z" fill="#F03836"/>
<path d="M50.4311 47.5H43.8957V20.1134H50.4962V22.7701C50.6989 22.3568 51.0824 21.9067 51.647 21.4196C52.2259 20.9178 52.9569 20.4897 53.8399 20.1355C54.7373 19.7665 55.7505 19.582 56.8796 19.582C58.6165 19.582 60.1002 20.0174 61.3306 20.8882C62.5754 21.7591 63.5307 22.9251 64.1965 24.3863C64.8624 25.8327 65.1953 27.4416 65.1953 29.2127C65.1953 30.9839 64.8407 32.6001 64.1314 34.0613C63.4221 35.5077 62.4234 36.6664 61.1351 37.5372C59.8614 38.3933 58.356 38.8213 56.619 38.8213C55.3742 38.8213 54.3103 38.5999 53.4273 38.1571C52.5589 37.6996 51.8713 37.1977 51.3647 36.6516C50.8726 36.0907 50.5614 35.6553 50.4311 35.3454V47.5ZM58.7468 29.2127C58.7468 28.3862 58.5659 27.6482 58.204 26.9988C57.8421 26.3346 57.35 25.818 56.7276 25.449C56.1196 25.0652 55.4321 24.8734 54.6649 24.8734C53.8688 24.8734 53.1523 25.0652 52.5154 25.449C51.893 25.818 51.4009 26.3346 51.039 26.9988C50.6771 27.6482 50.4962 28.3862 50.4962 29.2127C50.4962 30.0393 50.6771 30.7846 51.039 31.4488C51.4009 32.0982 51.893 32.6075 52.5154 32.9764C53.1523 33.3454 53.8688 33.5299 54.6649 33.5299C55.4321 33.5299 56.1196 33.3454 56.7276 32.9764C57.35 32.6075 57.8421 32.0982 58.204 31.4488C58.5659 30.7846 58.7468 30.0393 58.7468 29.2127Z" fill="#F03836"/>
<path d="M79.76 38.2899V35.3454C79.6298 35.6406 79.2968 36.0686 78.7613 36.6295C78.2402 37.1903 77.5454 37.6996 76.6769 38.1571C75.8084 38.5999 74.7952 38.8213 73.6372 38.8213C71.9003 38.8213 70.3804 38.3933 69.0777 37.5372C67.775 36.6664 66.7617 35.5077 66.038 34.0613C65.3143 32.6001 64.9524 30.9839 64.9524 29.2127C64.9524 27.4416 65.3143 25.8327 66.038 24.3863C66.7617 22.9251 67.775 21.7591 69.0777 20.8882C70.3804 20.0174 71.9003 19.582 73.6372 19.582C74.7518 19.582 75.7288 19.7665 76.5684 20.1355C77.4079 20.4897 78.0882 20.9178 78.6093 21.4196C79.1304 21.9067 79.4923 22.3568 79.6949 22.7701V20.1134H86.252V38.2899H79.76ZM71.4226 29.2127C71.4226 30.0393 71.6108 30.7846 71.9871 31.4488C72.3635 32.0982 72.8628 32.6075 73.4852 32.9764C74.1221 33.3454 74.8242 33.5299 75.5913 33.5299C76.3874 33.5299 77.0894 33.3454 77.6974 32.9764C78.3053 32.6075 78.783 32.0982 79.1304 31.4488C79.4923 30.7846 79.6732 30.0393 79.6732 29.2127C79.6732 28.3862 79.4923 27.6482 79.1304 26.9988C78.783 26.3346 78.3053 25.818 77.6974 25.449C77.0894 25.0652 76.3874 24.8734 75.5913 24.8734C74.8242 24.8734 74.1221 25.0652 73.4852 25.449C72.8628 25.818 72.3635 26.3346 71.9871 26.9988C71.6108 27.6482 71.4226 28.3862 71.4226 29.2127Z" fill="#F03836"/>
<path d="M97.4968 33.5299C98.3218 33.5299 99.0022 33.3897 99.5377 33.1093C100.073 32.8141 100.435 32.5779 100.623 32.4008L103.641 36.9616C103.41 37.1534 103.012 37.4044 102.447 37.7143C101.883 38.0095 101.173 38.2678 100.319 38.4892C99.4798 38.7106 98.5173 38.8213 97.4317 38.8213C95.3907 38.8213 93.5958 38.4302 92.0471 37.6479C90.4983 36.8509 89.2896 35.7291 88.4211 34.2827C87.5671 32.8362 87.1401 31.1389 87.1401 29.1906C87.1401 27.2275 87.5671 25.5302 88.4211 24.0985C89.2896 22.6668 90.4983 21.5598 92.0471 20.7775C93.5958 19.9805 95.3907 19.582 97.4317 19.582C98.5028 19.582 99.4581 19.7001 100.298 19.9362C101.152 20.1576 101.868 20.4159 102.447 20.7111C103.026 20.9916 103.431 21.2351 103.663 21.4417L100.58 26.0468C100.479 25.9434 100.29 25.7958 100.015 25.604C99.7548 25.4121 99.4147 25.2424 98.9949 25.0948C98.5752 24.9472 98.0758 24.8734 97.4968 24.8734C96.7875 24.8734 96.1217 25.0579 95.4993 25.4269C94.8913 25.7958 94.3992 26.3051 94.0229 26.9545C93.6465 27.6039 93.4583 28.3493 93.4583 29.1906C93.4583 30.0319 93.6465 30.7846 94.0229 31.4488C94.3992 32.0982 94.8913 32.6075 95.4993 32.9764C96.1217 33.3454 96.7875 33.5299 97.4968 33.5299Z" fill="#F03836"/>
<path d="M117.549 38.2899V35.3454C117.419 35.6406 117.086 36.0686 116.551 36.6295C116.029 37.1903 115.335 37.6996 114.466 38.1571C113.598 38.5999 112.584 38.8213 111.426 38.8213C109.689 38.8213 108.17 38.3933 106.867 37.5372C105.564 36.6664 104.551 35.5077 103.827 34.0613C103.103 32.6001 102.742 30.9839 102.742 29.2127C102.742 27.4416 103.103 25.8327 103.827 24.3863C104.551 22.9251 105.564 21.7591 106.867 20.8882C108.17 20.0174 109.689 19.582 111.426 19.582C112.541 19.582 113.518 19.7665 114.358 20.1355C115.197 20.4897 115.877 20.9178 116.399 21.4196C116.92 21.9067 117.281 22.3568 117.484 22.7701V20.1134H124.041V38.2899H117.549ZM109.212 29.2127C109.212 30.0393 109.4 30.7846 109.776 31.4488C110.153 32.0982 110.652 32.6075 111.274 32.9764C111.911 33.3454 112.613 33.5299 113.381 33.5299C114.177 33.5299 114.879 33.3454 115.487 32.9764C116.095 32.6075 116.572 32.0982 116.92 31.4488C117.281 30.7846 117.462 30.0393 117.462 29.2127C117.462 28.3862 117.281 27.6482 116.92 26.9988C116.572 26.3346 116.095 25.818 115.487 25.449C114.879 25.0652 114.177 24.8734 113.381 24.8734C112.613 24.8734 111.911 25.0652 111.274 25.449C110.652 25.818 110.153 26.3346 109.776 26.9988C109.4 27.6482 109.212 28.3862 109.212 29.2127Z" fill="#F03836"/>
<path d="M133.614 19.582C134.787 19.582 135.858 19.6853 136.828 19.892C137.797 20.0838 138.608 20.3052 139.259 20.5562C139.925 20.8071 140.352 21.0137 140.54 21.1761L138.391 25.139C138.116 24.9324 137.602 24.6667 136.849 24.342C136.111 24.0173 135.286 23.8549 134.374 23.8549C133.679 23.8549 133.093 23.9656 132.615 24.187C132.138 24.3937 131.899 24.7258 131.899 25.1833C131.899 25.6409 132.159 26.0099 132.681 26.2903C133.216 26.556 133.983 26.7921 134.982 26.9988C135.851 27.1759 136.733 27.4563 137.631 27.8401C138.528 28.2238 139.274 28.7921 139.867 29.5448C140.475 30.2828 140.779 31.2717 140.779 32.5115C140.779 33.7809 140.511 34.8288 139.976 35.6553C139.44 36.4819 138.731 37.1239 137.848 37.5815C136.965 38.039 136.01 38.3564 134.982 38.5335C133.954 38.7254 132.956 38.8213 131.986 38.8213C130.625 38.8213 129.438 38.6958 128.425 38.4449C127.426 38.194 126.616 37.9062 125.993 37.5815C125.371 37.2568 124.937 36.9985 124.69 36.8066L126.818 32.3787C127.195 32.7034 127.81 33.0724 128.664 33.4857C129.518 33.8842 130.422 34.0834 131.378 34.0834C132.304 34.0834 133.021 33.9432 133.527 33.6628C134.034 33.3823 134.287 33.0133 134.287 32.5558C134.287 32.1868 134.164 31.8916 133.918 31.6702C133.672 31.4488 133.325 31.2569 132.876 31.0946C132.427 30.9322 131.884 30.7846 131.248 30.6518C130.669 30.5337 130.053 30.3492 129.402 30.0983C128.751 29.8474 128.135 29.5079 127.556 29.0799C126.978 28.6371 126.507 28.0836 126.145 27.4194C125.783 26.7552 125.602 25.9508 125.602 25.0062C125.602 23.7959 125.986 22.7922 126.753 21.9952C127.52 21.1982 128.512 20.6004 129.728 20.2019C130.944 19.7886 132.239 19.582 133.614 19.582Z" fill="#F03836"/>
<path d="M155.508 38.2899V35.3454C155.378 35.6406 155.045 36.0686 154.509 36.6295C153.988 37.1903 153.293 37.6996 152.425 38.1571C151.556 38.5999 150.543 38.8213 149.385 38.8213C147.648 38.8213 146.128 38.3933 144.826 37.5372C143.523 36.6664 142.51 35.5077 141.786 34.0613C141.062 32.6001 140.7 30.9839 140.7 29.2127C140.7 27.4416 141.062 25.8327 141.786 24.3863C142.51 22.9251 143.523 21.7591 144.826 20.8882C146.128 20.0174 147.648 19.582 149.385 19.582C150.5 19.582 151.477 19.7665 152.316 20.1355C153.156 20.4897 153.836 20.9178 154.357 21.4196C154.878 21.9067 155.24 22.3568 155.443 22.7701V20.1134H162V38.2899H155.508ZM147.171 29.2127C147.171 30.0393 147.359 30.7846 147.735 31.4488C148.112 32.0982 148.611 32.6075 149.233 32.9764C149.87 33.3454 150.572 33.5299 151.339 33.5299C152.135 33.5299 152.838 33.3454 153.445 32.9764C154.053 32.6075 154.531 32.0982 154.878 31.4488C155.24 30.7846 155.421 30.0393 155.421 29.2127C155.421 28.3862 155.24 27.6482 154.878 26.9988C154.531 26.3346 154.053 25.818 153.445 25.449C152.838 25.0652 152.135 24.8734 151.339 24.8734C150.572 24.8734 149.87 25.0652 149.233 25.449C148.611 25.818 148.112 26.3346 147.735 26.9988C147.359 27.6482 147.171 28.3862 147.171 29.2127Z" fill="#F03836"/>
<path d="M79.8458 19.9675H86.191L65.0404 0.5L43.8899 19.9675H50.235L65.0404 6.31863L79.8458 19.9675ZM54.4652 4.41514V0.5H48.12V10.2338L54.4652 4.41514Z" fill="#07C1E4"/>
</svg>
