<svg width="19" height="18" viewBox="0 0 19 18" fill="none" xmlns="http://www.w3.org/2000/svg">
<path d="M5.84961 10.75H3.34961C2.24504 10.75 1.34961 11.6454 1.34961 12.75V15.25C1.34961 16.3546 2.24504 17.25 3.34961 17.25H5.84961C6.95418 17.25 7.84961 16.3546 7.84961 15.25V12.75C7.84961 11.6454 6.95418 10.75 5.84961 10.75Z" stroke="#484C52" stroke-width="1.5" stroke-linecap="round" stroke-linejoin="round"/>
<path d="M15.8496 10.75H13.3496C12.245 10.75 11.3496 11.6454 11.3496 12.75V15.25C11.3496 16.3546 12.245 17.25 13.3496 17.25H15.8496C16.9542 17.25 17.8496 16.3546 17.8496 15.25V12.75C17.8496 11.6454 16.9542 10.75 15.8496 10.75Z" stroke="#484C52" stroke-width="1.5" stroke-linecap="round" stroke-linejoin="round"/>
<path d="M5.84961 0.75H3.34961C2.24504 0.75 1.34961 1.64543 1.34961 2.75V5.25C1.34961 6.35457 2.24504 7.25 3.34961 7.25H5.84961C6.95418 7.25 7.84961 6.35457 7.84961 5.25V2.75C7.84961 1.64543 6.95418 0.75 5.84961 0.75Z" stroke="#484C52" stroke-width="1.5" stroke-linecap="round" stroke-linejoin="round"/>
<path d="M15.8496 0.75H13.3496C12.245 0.75 11.3496 1.64543 11.3496 2.75V5.25C11.3496 6.35457 12.245 7.25 13.3496 7.25H15.8496C16.9542 7.25 17.8496 6.35457 17.8496 5.25V2.75C17.8496 1.64543 16.9542 0.75 15.8496 0.75Z" stroke="#484C52" stroke-width="1.5" stroke-linecap="round" stroke-linejoin="round"/>
</svg>
