<svg width="20" height="20" viewBox="0 0 20 20" fill="none" xmlns="http://www.w3.org/2000/svg">
<path d="M10.1992 19C11.9793 19 13.7193 18.4722 15.1994 17.4832C16.6794 16.4943 17.8329 15.0887 18.5141 13.4442C19.1953 11.7996 19.3736 9.99002 19.0263 8.24419C18.679 6.49836 17.8219 4.89472 16.5632 3.63604C15.3045 2.37737 13.7009 1.5202 11.955 1.17294C10.2092 0.82567 8.3996 1.0039 6.75507 1.68509C5.11053 2.36628 3.70493 3.51983 2.71599 4.99987C1.72706 6.47991 1.19922 8.21997 1.19922 10C1.19922 11.44 1.53722 12.8 2.13922 14.007C2.59222 14.918 1.96222 16.147 1.72222 17.044C1.66905 17.2424 1.66904 17.4513 1.72219 17.6497C1.77534 17.8481 1.87979 18.029 2.02502 18.1742C2.17025 18.3194 2.35116 18.4239 2.54955 18.477C2.74794 18.5302 2.95683 18.5302 3.15522 18.477C4.05222 18.237 5.28122 17.607 6.19222 18.061C7.43743 18.6793 8.80895 19.0007 10.1992 19Z" stroke="#484C52" stroke-width="1.5" stroke-linecap="round" stroke-linejoin="round"/>
</svg>
