<svg width="22" height="17" viewBox="0 0 22 17" fill="none" xmlns="http://www.w3.org/2000/svg">
<path d="M3.5 0.5C2.89062 0.5 2.35938 0.726562 1.90625 1.17969C1.46875 1.61719 1.25 2.14062 1.25 2.75V7.83594C1.01562 8.05469 0.828125 8.30469 0.6875 8.58594C0.5625 8.86719 0.5 9.17188 0.5 9.5V16.25H4.25V14.75H17.75V16.25H21.5V9.5C21.5 9.17188 21.4297 8.86719 21.2891 8.58594C21.1641 8.30469 20.9844 8.05469 20.75 7.83594V2.75C20.75 2.14062 20.5234 1.61719 20.0703 1.17969C19.6328 0.726562 19.1094 0.5 18.5 0.5H3.5ZM3.5 2H18.5C18.7031 2 18.875 2.07813 19.0156 2.23438C19.1719 2.375 19.25 2.54688 19.25 2.75V7.25H17.75V6.5C17.75 5.89062 17.5234 5.36719 17.0703 4.92969C16.6328 4.47656 16.1094 4.25 15.5 4.25H12.5C11.9375 4.25 11.4375 4.44531 11 4.83594C10.5625 4.44531 10.0625 4.25 9.5 4.25H6.5C5.89062 4.25 5.35938 4.47656 4.90625 4.92969C4.46875 5.36719 4.25 5.89062 4.25 6.5V7.25H2.75V2.75C2.75 2.54688 2.82031 2.375 2.96094 2.23438C3.11719 2.07813 3.29688 2 3.5 2ZM6.5 5.75H9.5C9.70312 5.75 9.875 5.82812 10.0156 5.98438C10.1719 6.125 10.25 6.29688 10.25 6.5V7.25H5.75V6.5C5.75 6.29688 5.82031 6.125 5.96094 5.98438C6.11719 5.82812 6.29688 5.75 6.5 5.75ZM12.5 5.75H15.5C15.7031 5.75 15.875 5.82812 16.0156 5.98438C16.1719 6.125 16.25 6.29688 16.25 6.5V7.25H11.75V6.5C11.75 6.29688 11.8203 6.125 11.9609 5.98438C12.1172 5.82812 12.2969 5.75 12.5 5.75ZM2.75 8.75H19.25C19.4531 8.75 19.625 8.82812 19.7656 8.98438C19.9219 9.125 20 9.29688 20 9.5V14.75H19.25V13.25H2.75V14.75H2V9.5C2 9.29688 2.07031 9.125 2.21094 8.98438C2.36719 8.82812 2.54688 8.75 2.75 8.75Z" fill="#9CA3AF"/>
</svg>
