<svg width="16" height="18" viewBox="0 0 16 18" fill="none" xmlns="http://www.w3.org/2000/svg">
<path d="M12.7147 12.8807C11.9872 13.6083 10.5196 15.0758 9.41409 16.1813C8.63304 16.9624 7.36824 16.9623 6.58719 16.1813C5.50158 15.0957 4.06111 13.6552 3.28661 12.8807C0.683111 10.2772 0.683111 6.05612 3.28661 3.45262C5.8901 0.849126 10.1112 0.849126 12.7147 3.45262C15.3182 6.05612 15.3182 10.2772 12.7147 12.8807Z" stroke="#9CA3AF" stroke-width="1.5" stroke-linecap="round" stroke-linejoin="round"/>
<path d="M10.5007 8.16667C10.5007 9.54738 9.38136 10.6667 8.00065 10.6667C6.61994 10.6667 5.50065 9.54738 5.50065 8.16667C5.50065 6.78596 6.61994 5.66667 8.00065 5.66667C9.38136 5.66667 10.5007 6.78596 10.5007 8.16667Z" stroke="#9CA3AF" stroke-width="1.5" stroke-linecap="round" stroke-linejoin="round"/>
</svg>
