<svg width="25" height="24" viewBox="0 0 25 24" fill="none" xmlns="http://www.w3.org/2000/svg">
<g clip-path="url(#clip0_227_2997)">
<path d="M16.5 4H4.5C3.39543 4 2.5 4.89543 2.5 6V18C2.5 19.1046 3.39543 20 4.5 20H6.5V22H4.5C2.29086 22 0.5 20.2091 0.5 18V6C0.5 3.79086 2.29086 2 4.5 2H16.5C18.7091 2 20.5 3.79086 20.5 6V14H18.5V6C18.5 4.89543 17.6046 4 16.5 4Z" fill="#475367"/>
<path d="M12.5 9L16.5 14H4.5L7.5 10L9.5 12.72L12.5 9Z" fill="#475367"/>
<path d="M7.5 19.5C7.5 17.0139 9.49618 15 11.9652 15H20.2129C22.03 15 23.5 16.4833 23.5 18.3122C23.5 20.1412 22.03 21.6246 20.2129 21.6246H12.7508C11.5856 21.6246 10.642 20.6718 10.642 19.5C10.642 18.3282 11.5856 17.3754 12.7508 17.3754H20.3579V18.8532H12.7508C12.3999 18.8532 12.1102 19.1435 12.1102 19.5C12.1102 19.8564 12.3999 20.1468 12.7508 20.1468H20.2129C21.2158 20.1468 22.0318 19.3259 22.0318 18.3122C22.0318 17.2987 21.2158 16.4778 20.2129 16.4778H11.9652C10.3104 16.4778 8.96824 17.8291 8.96824 19.5C8.96824 21.1709 10.3104 22.5222 11.9652 22.5222H20.3579V24H11.9652C9.49618 24 7.5 21.9861 7.5 19.5Z" fill="#475367"/>
</g>
<defs>
<clipPath id="clip0_227_2997">
<rect width="24" height="24" fill="white" transform="translate(0.5)"/>
</clipPath>
</defs>
</svg>
