<svg width="18" height="16" viewBox="0 0 18 16" fill="none" xmlns="http://www.w3.org/2000/svg">
<path d="M18 2.42188C17.3281 2.71875 16.625 2.91406 15.8906 3.00781C16.2656 2.77344 16.5938 2.48437 16.875 2.14062C17.1562 1.78125 17.3672 1.38281 17.5078 0.945312C16.7734 1.38281 15.9922 1.6875 15.1641 1.85938C14.8203 1.48438 14.4141 1.19531 13.9453 0.992188C13.4766 0.789063 12.9844 0.6875 12.4688 0.6875C11.7969 0.6875 11.1797 0.851562 10.6172 1.17969C10.0547 1.50781 9.60156 1.96094 9.25781 2.53906C8.92969 3.10156 8.76562 3.71094 8.76562 4.36719C8.76562 4.66406 8.79688 4.94531 8.85938 5.21094C7.35938 5.14844 5.9375 4.76562 4.59375 4.0625C3.29688 3.40625 2.17969 2.50781 1.24219 1.36719C0.914062 1.92969 0.75 2.54688 0.75 3.21875C0.75 3.84375 0.898438 4.42969 1.19531 4.97656C1.49219 5.52344 1.89062 5.96094 2.39062 6.28906C1.79688 6.27344 1.24219 6.11719 0.726562 5.82031V5.86719C0.726562 6.75781 1.00781 7.54688 1.57031 8.23438C2.13281 8.90625 2.83594 9.32812 3.67969 9.5C3.36719 9.57812 3.04688 9.61719 2.71875 9.61719C2.48438 9.61719 2.25 9.60156 2.01562 9.57031C2.25 10.3047 2.67969 10.9141 3.30469 11.3984C3.94531 11.8672 4.66406 12.1094 5.46094 12.125C4.82031 12.625 4.10938 13.0156 3.32812 13.2969C2.54688 13.5781 1.73438 13.7188 0.890625 13.7188C0.59375 13.7031 0.296875 13.6797 0 13.6484C0.828125 14.1797 1.71875 14.5859 2.67188 14.8672C3.64062 15.1641 4.63281 15.3125 5.64844 15.3125C7.28906 15.3125 8.79688 14.9922 10.1719 14.3516C11.4219 13.7734 12.5156 12.9531 13.4531 11.8906C14.3281 10.9062 15.0078 9.78125 15.4922 8.51562C15.9453 7.28125 16.1719 6.04688 16.1719 4.8125L16.1484 4.32031C16.8828 3.80469 17.5 3.17188 18 2.42188Z" fill="black"/>
</svg>
