<svg width="16" height="18" viewBox="0 0 16 18" fill="none" xmlns="http://www.w3.org/2000/svg">
<path d="M12.7142 12.8807C11.9867 13.6083 10.5191 15.0758 9.4136 16.1813C8.63255 16.9624 7.36775 16.9623 6.5867 16.1813C5.50109 15.0957 4.06062 13.6552 3.28612 12.8807C0.682622 10.2772 0.682622 6.05612 3.28612 3.45262C5.88961 0.849126 10.1107 0.849126 12.7142 3.45262C15.3177 6.05612 15.3177 10.2772 12.7142 12.8807Z" stroke="#9CA3AF" stroke-width="1.5" stroke-linecap="round" stroke-linejoin="round"/>
<path d="M10.5002 8.16667C10.5002 9.54738 9.38088 10.6667 8.00016 10.6667C6.61945 10.6667 5.50016 9.54738 5.50016 8.16667C5.50016 6.78596 6.61945 5.66667 8.00016 5.66667C9.38088 5.66667 10.5002 6.78596 10.5002 8.16667Z" stroke="#9CA3AF" stroke-width="1.5" stroke-linecap="round" stroke-linejoin="round"/>
</svg>
