<svg width="20" height="16" viewBox="0 0 20 16" fill="none" xmlns="http://www.w3.org/2000/svg">
<path d="M10 0.5C7.79688 0.5 5.51562 0.671875 3.15625 1.01562C2.51562 1.10938 1.96094 1.375 1.49219 1.8125C1.03906 2.25 0.757812 2.78125 0.648438 3.40625C0.382812 4.85938 0.25 6.39062 0.25 8C0.25 9.60938 0.382812 11.1406 0.648438 12.5938C0.757812 13.2188 1.04688 13.75 1.51562 14.1875C1.98438 14.625 2.53125 14.8906 3.15625 14.9844C5.51562 15.3281 7.79688 15.5 10 15.5C12.2031 15.5 14.4844 15.3281 16.8438 14.9844C17.4688 14.8906 18.0156 14.625 18.4844 14.1875C18.9531 13.75 19.2422 13.2188 19.3516 12.5938C19.6172 11.1406 19.75 9.60938 19.75 8C19.75 6.375 19.6172 4.84375 19.3516 3.40625C19.2422 2.78125 18.9531 2.25 18.4844 1.8125C18.0312 1.375 17.4844 1.10938 16.8438 1.01562C14.4844 0.671875 12.2031 0.5 10 0.5ZM10 2C12.1562 2 14.3672 2.16406 16.6328 2.49219C16.9453 2.53906 17.2109 2.67187 17.4297 2.89062C17.6641 3.10938 17.8125 3.375 17.875 3.6875C18.125 5.04688 18.25 6.48438 18.25 8C18.25 9.51562 18.125 10.9531 17.875 12.3125C17.8125 12.625 17.6641 12.8906 17.4297 13.1094C17.2109 13.3281 16.9453 13.4609 16.6328 13.5078C14.3672 13.8359 12.1562 14 10 14C7.84375 14 5.63281 13.8359 3.36719 13.5078C3.05469 13.4609 2.78125 13.3281 2.54688 13.1094C2.32812 12.8906 2.1875 12.625 2.125 12.3125C1.875 10.9531 1.75 9.51562 1.75 8C1.75 6.48438 1.875 5.04688 2.125 3.6875C2.1875 3.375 2.32812 3.10938 2.54688 2.89062C2.78125 2.67187 3.05469 2.53906 3.36719 2.49219C5.61719 2.16406 7.82812 2 10 2ZM7.75 3.71094V12.2891L8.875 11.6562L14.125 8.65625L15.25 8L14.125 7.34375L8.875 4.34375L7.75 3.71094ZM9.25 6.28906L12.2266 8L9.25 9.71094V6.28906Z" fill="black"/>
</svg>
